ffmpeg started on 2016-11-29 at 17:30:37
Report written to "Output/x264/results/ffmpeg/old_town_cross_2160p50veryfast4500k.log"
Command line:
Tools/ffmpeg/ffmpeg -benchmark -y -i Input/y4m/old_town_cross_2160p50.y4m -c:v libx264 -preset veryfast -b:v 4500k -an Output/x264/encoded/old_town_cross_2160p50veryfast4500k.mkv
ffmpeg version N-82227-gdb23fde Copyright (c) 2000-2016 the FFmpeg developers
  built with gcc 5.4.0 (Ubuntu 5.4.0-6ubuntu1~16.04.2) 20160609
  configuration: --prefix=/home/jaroslav/ffmpeg_build --pkg-config-flags=--static --extra-cflags=-I/home/jaroslav/ffmpeg_build/include --extra-ldflags=-L/home/jaroslav/ffmpeg_build/lib --bindir=/home/jaroslav/bin --enable-gpl --enable-libass --enable-libfdk-aac --enable-libfreetype --enable-libmp3lame --enable-libopus --enable-libtheora --enable-libvorbis --enable-libvpx --enable-libx264 --enable-libx265 --enable-nvenc --enable-libmfx --enable-libxvid --enable-libgsm --enable-libopencore-amrnb --enable-version3 --enable-nonfree
  libavutil      55. 35.100 / 55. 35.100
  libavcodec     57. 66.101 / 57. 66.101
  libavformat    57. 57.100 / 57. 57.100
  libavdevice    57.  2.100 / 57.  2.100
  libavfilter     6. 66.100 /  6. 66.100
  libswscale      4.  3.100 /  4.  3.100
  libswresample   2.  4.100 /  2.  4.100
  libpostproc    54.  2.100 / 54.  2.100
Input #0, yuv4mpegpipe, from 'Input/y4m/old_town_cross_2160p50.y4m':
  Duration: 00:00:10.00, start: 0.000000, bitrate: 4976642 kb/s
    Stream #0:0: Video: rawvideo (I420 / 0x30323449), yuv420p(progressive), 3840x2160, SAR 1:1 DAR 16:9, 50 fps, 50 tbr, 50 tbn, 50 tbc
[libx264 @ 0x3e6a120] using SAR=1/1
[libx264 @ 0x3e6a120] using cpu capabilities: MMX2 SSE2Fast SSSE3 SSE4.2 AVX FMA3 AVX2 LZCNT BMI2
[libx264 @ 0x3e6a120] profile High, level 5.2
[libx264 @ 0x3e6a120] 264 - core 148 - H.264/MPEG-4 AVC codec - Copyleft 2003-2016 - http://www.videolan.org/x264.html - options: cabac=1 ref=1 deblock=1:0:0 analyse=0x3:0x113 me=hex subme=2 psy=1 psy_rd=1.00:0.00 mixed_ref=0 me_range=16 chroma_me=1 trellis=0 8x8dct=1 cqm=0 deadzone=21,11 fast_pskip=1 chroma_qp_offset=0 threads=6 lookahead_threads=2 sliced_threads=0 nr=0 decimate=1 interlaced=0 bluray_compat=0 constrained_intra=0 bframes=3 b_pyramid=2 b_adapt=1 b_bias=0 direct=1 weightb=1 open_gop=0 weightp=1 keyint=250 keyint_min=25 scenecut=40 intra_refresh=0 rc_lookahead=10 rc=abr mbtree=1 bitrate=4500 ratetol=1.0 qcomp=0.60 qpmin=0 qpmax=69 qpstep=4 ip_ratio=1.40 aq=1:1.00
Output #0, matroska, to 'Output/x264/encoded/old_town_cross_2160p50veryfast4500k.mkv':
  Metadata:
    encoder         : Lavf57.57.100
    Stream #0:0: Video: h264 (libx264) (H264 / 0x34363248), yuv420p, 3840x2160 [SAR 1:1 DAR 16:9], q=-1--1, 4500 kb/s, 50 fps, 1k tbn, 50 tbc
    Metadata:
      encoder         : Lavc57.66.101 libx264
    Side data:
      cpb: bitrate max/min/avg: 0/0/4500000 buffer size: 0 vbv_delay: -1
Stream mapping:
  Stream #0:0 -> #0:0 (rawvideo (native) -> h264 (libx264))
Press [q] to stop, [?] for help
frame=   22 fps=0.0 q=41.0 size=       1kB time=-00:00:00.01 bitrate=N/A speed=N/A    frame=   38 fps= 35 q=39.0 size=       1kB time=00:00:00.30 bitrate=  19.5kbits/s speed=0.276x    frame=   54 fps= 33 q=37.0 size=       1kB time=00:00:00.62 bitrate=   9.4kbits/s speed=0.381x    frame=   70 fps= 32 q=36.0 size=       1kB time=00:00:00.94 bitrate=   6.2kbits/s speed=0.435x    frame=   86 fps= 32 q=36.0 size=       1kB time=00:00:01.26 bitrate=   4.7kbits/s speed=0.464x    frame=  102 fps= 31 q=35.0 size=       1kB time=00:00:01.58 bitrate=   3.7kbits/s speed=0.486x    frame=  118 fps= 31 q=35.0 size=       1kB time=00:00:01.90 bitrate=   3.1kbits/s speed=0.503x    frame=  134 fps= 31 q=35.0 size=       1kB time=00:00:02.22 bitrate=   2.6kbits/s speed=0.513x    frame=  150 fps= 31 q=35.0 size=       1kB time=00:00:02.54 bitrate=   2.3kbits/s speed=0.52x    frame=  166 fps= 31 q=35.0 size=       1kB time=00:00:02.86 bitrate=   2.0kbits/s speed=0.526x    frame=  182 fps= 30 q=35.0 size=       1kB time=00:00:03.18 bitrate=   1.8kbits/s speed=0.529x    frame=  198 fps= 30 q=35.0 size=       1kB time=00:00:03.50 bitrate=   1.7kbits/s speed=0.535x    frame=  214 fps= 30 q=35.0 size=       1kB time=00:00:03.82 bitrate=   1.5kbits/s speed=0.539x    frame=  230 fps= 30 q=35.0 size=       1kB time=00:00:04.14 bitrate=   1.4kbits/s speed=0.543x    frame=  236 fps= 29 q=35.0 size=       1kB time=00:00:04.26 bitrate=   1.4kbits/s speed=0.521x    frame=  244 fps= 28 q=35.0 size=       1kB time=00:00:04.42 bitrate=   1.3kbits/s speed=0.509x    frame=  252 fps= 27 q=36.0 size=       1kB time=00:00:04.58 bitrate=   1.3kbits/s speed=0.498x    frame=  260 fps= 27 q=36.0 size=       1kB time=00:00:04.74 bitrate=   1.2kbits/s speed=0.489x    frame=  271 fps= 26 q=36.0 size=    2611kB time=00:00:04.96 bitrate=4311.7kbits/s speed=0.483x    frame=  287 fps= 27 q=37.0 size=    2611kB time=00:00:05.28 bitrate=4050.4kbits/s speed=0.489x    frame=  303 fps= 27 q=36.0 size=    2611kB time=00:00:05.60 bitrate=3819.0kbits/s speed=0.494x    frame=  319 fps= 27 q=36.0 size=    2611kB time=00:00:05.92 bitrate=3612.6kbits/s speed=0.498x    frame=  335 fps= 27 q=36.0 size=    2611kB time=00:00:06.24 bitrate=3427.4kbits/s speed=0.502x    frame=  351 fps= 27 q=36.0 size=    2611kB time=00:00:06.56 bitrate=3260.2kbits/s speed=0.504x    frame=  367 fps= 27 q=36.0 size=    2611kB time=00:00:06.88 bitrate=3108.6kbits/s speed=0.507x    frame=  383 fps= 27 q=36.0 size=    2611kB time=00:00:07.20 bitrate=2970.4kbits/s speed=0.511x    frame=  399 fps= 27 q=36.0 size=    2611kB time=00:00:07.52 bitrate=2844.1kbits/s speed=0.513x    frame=  415 fps= 27 q=36.0 size=    2611kB time=00:00:07.84 bitrate=2728.0kbits/s speed=0.515x    frame=  431 fps= 27 q=35.0 size=    2611kB time=00:00:08.16 bitrate=2621.0kbits/s speed=0.518x    frame=  447 fps= 27 q=35.0 size=    2611kB time=00:00:08.48 bitrate=2522.1kbits/s speed=0.52x    frame=  463 fps= 27 q=35.0 size=    2611kB time=00:00:08.80 bitrate=2430.4kbits/s speed=0.522x    frame=  474 fps= 27 q=36.0 size=    2611kB time=00:00:09.02 bitrate=2371.2kbits/s speed=0.517x    frame=  481 fps= 27 q=36.0 size=    2611kB time=00:00:09.16 bitrate=2334.9kbits/s speed=0.511x    frame=  489 fps= 27 q=36.0 size=    2611kB time=00:00:09.32 bitrate=2294.8kbits/s speed=0.505x    frame=  497 fps= 26 q=36.0 size=    2611kB time=00:00:09.48 bitrate=2256.1kbits/s speed= 0.5x    frame=  500 fps= 25 q=-1.0 Lsize=    5645kB time=00:00:09.94 bitrate=4651.7kbits/s speed=0.503x    
video:5640kB audio:0kB subtitle:0kB other streams:0kB global headers:0kB muxing overhead: 0.077270%
bench: utime=60.932s
bench: maxrss=1088400kB
[libx264 @ 0x3e6a120] frame I:3     Avg QP:33.31  size:194063
[libx264 @ 0x3e6a120] frame P:183   Avg QP:33.97  size: 18840
[libx264 @ 0x3e6a120] frame B:314   Avg QP:35.51  size:  5558
[libx264 @ 0x3e6a120] consecutive B-frames: 16.0%  0.8%  0.0% 83.2%
[libx264 @ 0x3e6a120] mb I  I16..4: 37.9% 55.2%  6.9%
[libx264 @ 0x3e6a120] mb P  I16..4:  1.6%  1.1%  0.0%  P16..4: 15.5%  3.9%  0.7%  0.0%  0.0%    skip:77.2%
[libx264 @ 0x3e6a120] mb B  I16..4:  0.2%  0.1%  0.0%  B16..8:  7.2%  0.5%  0.0%  direct: 1.3%  skip:90.6%  L0:36.0% L1:63.0% BI: 1.0%
[libx264 @ 0x3e6a120] final ratefactor: 28.01
[libx264 @ 0x3e6a120] 8x8 transform intra:44.9% inter:48.4%
[libx264 @ 0x3e6a120] coded y,uvDC,uvAC intra: 32.4% 25.5% 7.8% inter: 0.9% 1.4% 0.0%
[libx264 @ 0x3e6a120] i16 v,h,dc,p: 43% 37% 15%  5%
[libx264 @ 0x3e6a120] i8 v,h,dc,ddl,ddr,vr,hd,vl,hu: 13% 21% 45%  3%  3%  3%  5%  2%  5%
[libx264 @ 0x3e6a120] i4 v,h,dc,ddl,ddr,vr,hd,vl,hu: 20% 29%  9%  7%  7%  6% 10%  5%  8%
[libx264 @ 0x3e6a120] i8c dc,h,v,p: 73% 13% 12%  1%
[libx264 @ 0x3e6a120] Weighted P-Frames: Y:0.5% UV:0.0%
[libx264 @ 0x3e6a120] kb/s:4620.10
